<svg width="14" height="20" viewBox="0 0 14 20" fill="none" xmlns="http://www.w3.org/2000/svg">
<path fill-rule="evenodd" clip-rule="evenodd" d="M11.97 16H1.93124C0.342695 16 -0.56408 14.1609 0.389048 12.8721C0.810999 12.3016 1.07103 11.6249 1.14101 10.9153L1.52954 6.97519C1.73904 4.85063 3.11705 3.10719 4.97843 2.37366V2.26995C4.97843 1.01629 5.86141 0 6.95062 0C8.03983 0 8.92281 1.01629 8.92281 2.26995V2.37366C10.7842 3.10719 12.1622 4.85063 12.3717 6.97519L12.7602 10.9153C12.8302 11.6249 13.0902 12.3016 13.5122 12.8721C14.4653 14.1609 13.5585 16 11.97 16ZM9.53288 18.0715C9.1355 19.1992 8.12922 20 6.95063 20C5.77204 20 4.76575 19.1992 4.36838 18.0715C4.35181 18.0245 4.34415 17.974 4.34415 17.9233C4.34415 17.6895 4.5088 17.5 4.71191 17.5H9.18935C9.39246 17.5 9.55711 17.6895 9.55711 17.9233C9.55711 17.974 9.54944 18.0245 9.53288 18.0715Z" fill="#181615"/>
</svg>
