<svg width="27" height="27" viewBox="0 0 27 27" fill="none" xmlns="http://www.w3.org/2000/svg">
<path d="M20.5 13.532L13.8811 20.2203C13.0703 21.0397 11.9705 21.5 10.8238 21.5C9.67703 21.5 8.57726 21.0397 7.7664 20.2203C6.95554 19.4009 6.5 18.2896 6.5 17.1309C6.5 15.9721 6.95554 14.8608 7.7664 14.0414L14.3853 7.35312C14.9259 6.80688 15.659 6.5 16.4235 6.5C17.188 6.5 17.9212 6.80688 18.4618 7.35312C19.0023 7.89937 19.306 8.64024 19.306 9.41275C19.306 10.1853 19.0023 10.9261 18.4618 11.4724L11.8357 18.1607C11.5654 18.4338 11.1988 18.5873 10.8166 18.5873C10.4343 18.5873 10.0677 18.4338 9.79744 18.1607C9.52715 17.8876 9.3753 17.5171 9.3753 17.1309C9.3753 16.7446 9.52715 16.3742 9.79744 16.1011L15.9122 9.92947" stroke="white" stroke-width="1.1" stroke-linecap="round" stroke-linejoin="round"/>
</svg>
