<svg width="24" height="25" viewBox="0 0 24 25" fill="none" xmlns="http://www.w3.org/2000/svg">
<path d="M19 12.532L12.3811 19.2203C11.5703 20.0397 10.4705 20.5 9.32376 20.5C8.17703 20.5 7.07726 20.0397 6.2664 19.2203C5.45554 18.4009 5 17.2896 5 16.1309C5 14.9721 5.45554 13.8608 6.2664 13.0414L12.8853 6.35312C13.4259 5.80688 14.159 5.5 14.9235 5.5C15.688 5.5 16.4212 5.80688 16.9618 6.35312C17.5023 6.89937 17.806 7.64024 17.806 8.41275C17.806 9.18526 17.5023 9.92613 16.9618 10.4724L10.3357 17.1607C10.0654 17.4338 9.6988 17.5873 9.31656 17.5873C8.93431 17.5873 8.56773 17.4338 8.29744 17.1607C8.02715 16.8876 7.8753 16.5171 7.8753 16.1309C7.8753 15.7446 8.02715 15.3742 8.29744 15.1011L14.4122 8.92947" stroke="#F8F8F8" stroke-width="1.1" stroke-linecap="round" stroke-linejoin="round"/>
</svg>
