<svg width="35" height="34" viewBox="0 0 35 34" fill="none" xmlns="http://www.w3.org/2000/svg">
<g id="flat-color-icons:google">
<path id="Vector" d="M31.3908 14.2256H30.2497V14.1668H17.4997V19.8335H25.506C24.3379 23.1322 21.1993 25.5002 17.4997 25.5002C12.8055 25.5002 8.99967 21.6943 8.99967 17.0002C8.99967 12.306 12.8055 8.50016 17.4997 8.50016C19.6665 8.50016 21.6378 9.31758 23.1387 10.6528L27.1458 6.64575C24.6156 4.2877 21.2312 2.8335 17.4997 2.8335C9.67613 2.8335 3.33301 9.17662 3.33301 17.0002C3.33301 24.8237 9.67613 31.1668 17.4997 31.1668C25.3232 31.1668 31.6663 24.8237 31.6663 17.0002C31.6663 16.0503 31.5686 15.1231 31.3908 14.2256Z" fill="#FFC107"/>
<path id="Vector_2" d="M4.9668 10.4063L9.62125 13.8197C10.8807 10.7017 13.9308 8.50016 17.5 8.50016C19.6668 8.50016 21.6381 9.31758 23.1391 10.6528L27.1461 6.64575C24.616 4.2877 21.2315 2.8335 17.5 2.8335C12.0586 2.8335 7.33971 5.90554 4.9668 10.4063Z" fill="#FF3D00"/>
<path id="Vector_3" d="M17.4996 31.1667C21.1588 31.1667 24.4837 29.7663 26.9976 27.489L22.613 23.7787C21.1429 24.8968 19.3465 25.5015 17.4996 25.5C13.8148 25.5 10.6861 23.1505 9.50744 19.8716L4.8877 23.431C7.23228 28.0188 11.9937 31.1667 17.4996 31.1667Z" fill="#4CAF50"/>
<path id="Vector_4" d="M31.3911 14.2253H30.25V14.1665H17.5V19.8332H25.5063C24.9476 21.4031 23.9411 22.775 22.6113 23.7793L22.6135 23.7779L26.998 27.4881C26.6878 27.77 31.6667 24.0832 31.6667 16.9998C31.6667 16.05 31.5689 15.1228 31.3911 14.2253Z" fill="#1976D2"/>
</g>
</svg>
