<svg xmlns="http://www.w3.org/2000/svg" width="88" height="34" viewBox="0 0 88 34" fill="none">
  <path d="M86 13.6633H72.3307C71.2066 13.6633 70.1769 14.2917 69.6628 15.2914L62.7404 28.7532C61.4097 31.3411 57.5439 30.7091 57.1066 27.8321L54.9529 13.6633L53.6389 5.01974C53.1325 1.68848 48.3653 1.594 47.7272 4.90259L45.0668 18.699C44.5278 21.4941 40.4119 21.1009 40.4119 18.2542V14.2902C40.4119 12.2989 37.6088 11.8687 37.0116 13.7683V13.7683C36.4965 15.4066 34.1714 15.3876 33.6831 13.7411L32.1434 8.54962C31.2487 5.53271 26.9045 5.75302 26.3195 8.84496L22.4326 29.3904C21.806 32.7025 17.0361 32.6229 16.5203 29.2918L14.4936 16.2042C14.2672 14.742 13.0085 13.6633 11.5289 13.6633H0" stroke="#FFB6FC" stroke-width="3" stroke-linecap="round" stroke-linejoin="round"/>
</svg>