<svg xmlns="http://www.w3.org/2000/svg" width="177" height="39" viewBox="0 0 177 39" fill="none">
  <path d="M175 15.6633H162.792C161.135 15.6633 159.792 14.3201 159.792 12.6633V8.87166C159.792 5.19711 154.455 4.74365 153.835 8.36553L152.917 13.7285C152.297 17.3504 146.96 16.5952 146.96 12.9207V12.9207C146.96 10.161 143.548 8.79782 141.716 10.8618L141.537 11.0636C139.878 12.9329 136.795 12.0728 136.343 9.61467L135.305 3.97028C134.717 0.771547 130.171 0.664044 129.433 3.8314L125.44 20.9547C124.678 24.2213 119.87 23.6681 119.87 20.3139V16.564C119.87 14.1951 116.586 13.5917 115.744 15.806V15.806C115.04 17.6578 112.411 17.6328 111.743 15.768L109.074 8.32707C108.062 5.50566 103.994 5.74888 103.326 8.67077L97.4239 34.4672C96.6982 37.6391 92.1496 37.5485 91.5507 34.3503L88.5097 18.1111C88.2439 16.6919 87.0049 15.6633 85.561 15.6633L2 15.6633" stroke="#FFB6FC" stroke-width="3" stroke-linecap="round" stroke-linejoin="round"/>
</svg>