<svg xmlns="http://www.w3.org/2000/svg" width="64" height="45" viewBox="0 0 64 45" fill="none">
  <path d="M64 31.6633H63.412C61.7899 31.6633 60.4616 30.3739 60.4133 28.7526L59.6922 4.53585C59.5817 0.825884 54.1584 0.581756 53.715 4.26678L50.2374 33.169C49.9096 35.8927 45.9209 35.7775 45.7508 33.0395L45.3155 26.0326C45.2505 24.9852 43.7833 24.8054 43.4673 25.806V25.806C43.1411 26.8387 41.6172 26.6037 41.6172 25.5208V22.1794C41.6172 20.4089 39.0584 20.1619 38.7198 21.8998L35.2295 39.8159C34.751 42.2723 31.1341 41.9233 31.1341 39.4207L31.1341 32.001C31.1341 30.5267 29.0179 30.2898 28.692 31.7277V31.7277C28.3991 33.0198 26.5541 33.0085 26.2771 31.7128L25.3193 27.2331C24.7933 24.773 21.2389 24.9065 20.899 27.3991L19.1041 40.5587C18.6265 44.0609 13.5423 43.9989 13.1502 40.4861L12.463 34.3304C12.2934 32.8118 11.0095 31.6633 9.48149 31.6633H2" stroke="#FFB6FC" stroke-width="3" stroke-linecap="round" stroke-linejoin="round"/>
</svg>