<svg width="139" height="26" viewBox="0 0 139 26" fill="none" xmlns="http://www.w3.org/2000/svg">
<g clip-path="url(#clip0_592_2223)">
<path d="M30.6157 5.4502H33.7841V13.1624L43.0512 5.4701L43.0872 19.0398H39.919V11.1412L30.6274 19.1216L30.6157 5.4502Z" fill="white"/>
<path d="M58.2523 5.4502V19.0392H55.0842V8.3601H51.0848V13.7497C51.0848 14.6765 50.9725 15.4463 50.7481 16.0574C50.5235 16.669 50.2055 17.2043 49.7947 17.6628C49.25 18.2362 48.5908 18.6421 47.8165 18.881C47.0424 19.1199 46.2155 19.1725 45.3369 19.0386V16.1431C45.767 16.2482 46.1846 16.236 46.5911 16.1072C46.9969 15.9783 47.3199 15.7848 47.5587 15.5265C47.7115 15.3545 47.8309 15.1228 47.9172 14.8314C48.0029 14.54 48.0459 14.1794 48.0459 13.7491V5.4502H58.2523Z" fill="white"/>
<path d="M62.2811 5.4502H65.4492V13.1624L74.7614 5.4701L74.7525 19.0398H71.5844V11.1412L62.2651 19.1216L62.2811 5.4502Z" fill="white"/>
<path d="M77.2031 19.0198L80.1782 5.4502L86.105 14.5759L92.0243 5.52206L95.0205 19.0193H91.7952L90.4332 12.2101L86.1009 19.0293L81.7896 12.2101L80.4282 19.0193H77.2031V19.0198Z" fill="white"/>
<path d="M122.543 8.3601H118.573V19.0392H115.419V8.3601H111.434V5.4502H122.543V8.3601Z" fill="white"/>
<path d="M127.975 17.8223L127.995 25.179H124.817L124.807 5.80994H127.975V7.30084C128.453 6.71796 129.036 6.26396 129.724 5.93933C130.412 5.61473 131.177 5.45215 132.017 5.45215C133.862 5.45215 135.424 6.10414 136.705 7.40868C137.985 8.71322 138.625 10.4214 138.625 12.5334C138.625 14.7216 137.959 16.4852 136.625 17.8229C135.292 19.1612 133.766 19.8297 132.045 19.8297C131.291 19.8297 130.547 19.6578 129.816 19.3138C129.086 18.9693 128.472 18.4721 127.975 17.8223ZM131.631 8.28961C130.551 8.28961 129.64 8.67174 128.9 9.43655C128.159 10.2014 127.789 11.2858 127.789 12.6904C127.789 14.0475 128.159 15.101 128.9 15.8514C129.64 16.6019 130.551 16.9768 131.631 16.9768C132.749 16.9768 133.656 16.5637 134.354 15.7369C135.051 14.9108 135.401 13.8855 135.401 12.6622C135.401 11.4296 135.051 10.3927 134.354 9.55157C133.656 8.71047 132.749 8.28961 131.631 8.28961Z" fill="white"/>
<path d="M110.324 13.1774H99.4582C99.5343 14.4482 99.912 15.4397 100.591 16.152C101.269 16.8643 102.172 17.2198 103.3 17.2198C104.303 17.2198 105.139 17.0097 105.808 16.5889C106.477 16.1686 107.06 15.49 107.557 14.5532L110.18 16.0154C109.415 17.3819 108.47 18.4 107.342 19.0685C106.215 19.7371 104.891 20.0717 103.372 20.0717C101.193 20.0717 99.4587 19.4075 98.1686 18.0792C96.8782 16.7509 96.2334 14.9785 96.2334 12.7609C96.2334 10.6302 96.9 8.87883 98.2331 7.50738C99.5665 6.13649 101.279 5.4502 103.372 5.4502C105.56 5.4502 107.266 6.07621 108.49 7.32821C109.713 8.58021 110.325 10.3338 110.325 12.589V13.1774H110.324ZM107.098 11.0842C106.974 10.1093 106.601 9.3666 105.98 8.85505C105.359 8.34409 104.509 8.08804 103.429 8.08804C102.406 8.08804 101.584 8.33688 100.963 8.8335C100.342 9.33065 99.9072 10.0805 99.6588 11.0842H107.098Z" fill="white"/>
<path d="M23.9567 -0.000488281H0.000488281V23.9513H23.9567V-0.000488281Z" fill="#5C5EDC"/>
<path d="M12.0081 17.356H7.66699V21.7612H12.0081V17.356Z" fill="white"/>
<path d="M12.0082 7.86774H12.0088V12.9809H7.66766V9.34703C7.66766 9.22207 7.61735 9.11036 7.53604 9.02853C7.45421 8.94667 7.3425 8.89691 7.21751 8.89691C6.96867 8.89691 6.76736 9.09819 6.76736 9.34703V21.7593H2.42627V7.86774H2.42682C2.42627 7.85669 2.42627 7.84675 2.42627 7.83569C2.42627 5.189 4.57084 3.04443 7.21751 3.04443C9.86421 3.04443 12.0088 5.189 12.0088 7.83569C12.0088 7.84675 12.0088 7.85669 12.0082 7.86774Z" fill="white"/>
<path d="M20.5641 12.8535H16.1909V17.2267H20.5641V12.8535Z" fill="white"/>
</g>
<defs>
<clipPath id="clip0_592_2223">
<rect width="138.625" height="25.2965" fill="white"/>
</clipPath>
</defs>
</svg>
