<svg width="148" height="27" viewBox="0 0 148 27" fill="none" xmlns="http://www.w3.org/2000/svg">
<g id="Group 7 1" clip-path="url(#clip0_505_4085)">
<path id="Vector" d="M33 6H36.3027V14.4617L45.9626 6.02184L46 20.9102H42.6976V12.244L33.0121 21L33 6Z" fill="white"/>
<path id="Vector_2" d="M62 6V20.9215H58.5658V9.19523H54.2306V15.1133C54.2306 16.131 54.1088 16.9763 53.8656 17.6473C53.6221 18.3189 53.2774 18.9067 52.8321 19.4101C52.2417 20.0398 51.5271 20.4855 50.6878 20.7478C49.8487 21.0101 48.9523 21.0678 48 20.9208V17.7414C48.4662 17.8568 48.9189 17.8434 49.3595 17.7019C49.7994 17.5604 50.1495 17.3479 50.4084 17.0643C50.574 16.8755 50.7034 16.6211 50.7969 16.301C50.8899 15.9811 50.9365 15.5851 50.9365 15.1127V6H62Z" fill="white"/>
<path id="Vector_3" d="M66.0166 6H69.3124V14.4617L79 6.02184L78.9908 20.9102H75.6949V12.244L66 21L66.0166 6Z" fill="white"/>
<path id="Vector_4" d="M82 19.9903L85.1726 6L91.4927 15.4086L97.805 6.0741L101 19.9897H97.5606L96.1082 12.9695L91.4884 20L86.891 12.9695L85.4391 19.9897H82V19.9903Z" fill="white"/>
<path id="Vector_5" d="M131 9.21205H126.711V21H123.304V9.21205H119V6H131V9.21205Z" fill="white"/>
<path id="Vector_6" d="M136.439 19.1686L136.461 27H133.011L133 6.38089H136.439V7.96801C136.958 7.34751 137.591 6.86421 138.337 6.51863C139.084 6.17307 139.914 6 140.827 6C142.829 6 144.525 6.69407 145.915 8.08281C147.306 9.47154 148 11.29 148 13.5383C148 15.8677 147.277 17.7451 145.829 19.1692C144.382 20.5938 142.725 21.3055 140.858 21.3055C140.038 21.3055 139.231 21.1224 138.438 20.7563C137.645 20.3895 136.978 19.8603 136.439 19.1686ZM140.407 9.02059C139.235 9.02059 138.247 9.42738 137.443 10.2416C136.639 11.0557 136.237 12.2102 136.237 13.7055C136.237 15.1501 136.639 16.2716 137.443 17.0704C138.247 17.8693 139.235 18.2684 140.407 18.2684C141.621 18.2684 142.606 17.8287 143.364 16.9486C144.121 16.0691 144.5 14.9776 144.5 13.6754C144.5 12.3632 144.121 11.2594 143.364 10.364C142.606 9.46861 141.621 9.02059 140.407 9.02059Z" fill="white"/>
<path id="Vector_7" d="M117.999 14.4557H106.433C106.514 15.8463 106.916 16.9313 107.638 17.7107C108.361 18.4902 109.322 18.8793 110.522 18.8793C111.59 18.8793 112.48 18.6493 113.193 18.1888C113.904 17.7289 114.525 16.9864 115.054 15.9613L117.847 17.5613C117.032 19.0566 116.026 20.1706 114.825 20.9023C113.625 21.6339 112.216 22 110.599 22C108.279 22 106.433 21.2732 105.06 19.8196C103.686 18.3661 103 16.4266 103 14C103 11.6684 103.71 9.75188 105.129 8.25114C106.548 6.751 108.371 6 110.599 6C112.929 6 114.745 6.68503 116.047 8.05507C117.349 9.4251 118 11.344 118 13.8118V14.4557H117.999ZM114.566 12.1652C114.433 11.0983 114.036 10.2856 113.375 9.72586C112.714 9.16673 111.809 8.88654 110.659 8.88654C109.571 8.88654 108.696 9.15884 108.035 9.70228C107.373 10.2463 106.911 11.0669 106.646 12.1652H114.566Z" fill="white"/>
<path id="Vector_8" d="M26 0H0V26H26V0Z" fill="#5C5EDC"/>
<path id="Vector_9" d="M13 19H8V24H13V19Z" fill="white"/>
<path id="Vector_10" d="M12.9994 8.15453H13V13.6188H8.46975V9.7354C8.46975 9.60186 8.41725 9.48248 8.3324 9.39502C8.247 9.30754 8.13042 9.25437 7.99999 9.25437C7.74031 9.25437 7.53023 9.46947 7.53023 9.7354V23H3V8.15453H3.00058C3 8.14272 3 8.13209 3 8.12028C3 5.29183 5.238 3 7.99999 3C10.762 3 13 5.29183 13 8.12028C13 8.13209 13 8.14272 12.9994 8.15453Z" fill="white"/>
<path id="Vector_11" d="M22 14H17V19H22V14Z" fill="white"/>
</g>
<defs>
<clipPath id="clip0_505_4085">
<rect width="148" height="27" fill="white"/>
</clipPath>
</defs>
</svg>
