<svg width="25" height="20" viewBox="0 0 25 20" fill="none" xmlns="http://www.w3.org/2000/svg">
<path d="M4.875 19H20.125C23 19 24 17.1085 24 14.9559V5.04412C24 2 22.5625 1 20.125 1H4.875C2 1 1 2.5 1 5.04412V14.9559C1 17.7426 2.4375 19 4.875 19Z" fill="#181615"/>
<path d="M2.4375 2.52206L12.5 10.8934L23.2812 2.52206M10.6801 9.5L2.4375 17.7426M22.5625 17.1085L14.6658 9.21173M4.875 19C2.4375 19 1 17.7426 1 14.9559V5.04412C1 2.5 2 1 4.875 1H20.125C22.5625 1 24 2 24 5.04412V14.9559C24 17.1085 23 19 20.125 19H4.875Z" stroke="white" stroke-width="1.5" stroke-linecap="round" stroke-linejoin="round"/>
</svg>
