<svg xmlns="http://www.w3.org/2000/svg" width="127" height="64" viewBox="0 0 127 64" fill="none">
<path d="M124.176 31.5173C102.591 9.40324 48.0966 -20.9157 2.79609 34.7214" stroke="#C6E975" stroke-width="6"/>
<path d="M2.51911 32.1311C24.1776 54.2433 78.8638 84.5571 124.341 28.9154" stroke="#C6E975" stroke-width="6"/>
<path d="M88.5394 26.1768C90.0713 25.5455 90.7671 23.8004 89.8675 22.3978C87.8016 19.177 84.9068 16.5125 81.478 14.7136C77.1523 12.4443 72.2443 11.6932 67.5904 12.5884C62.9364 13.4836 58.8244 15.9697 55.955 19.623C53.0856 23.2763 51.6363 27.8708 51.8541 32.6237C52.0719 37.3766 53.9433 41.9938 57.1494 45.6886C60.3555 49.3834 64.698 51.9272 69.4369 52.8865C74.1758 53.8458 79.018 53.1613 83.1383 50.9496C86.4168 49.1899 89.0769 46.5499 90.8488 43.3389C91.6149 41.9506 90.8203 40.2596 89.2918 39.6325L79.2357 35.5071C76.7342 34.4809 76.6469 31.0774 79.0963 30.0681L88.5394 26.1768Z" fill="#C6E975"/>
</svg>