<svg width="20" height="20" viewBox="0 0 20 20" fill="none" xmlns="http://www.w3.org/2000/svg">
<g id="Component 3" clip-path="url(#clip0_1449_8070)">
<path id="Vector" d="M10 12.375C11.3117 12.375 12.375 11.3117 12.375 10C12.375 8.68832 11.3117 7.625 10 7.625C8.68832 7.625 7.625 8.68832 7.625 10C7.625 11.3117 8.68832 12.375 10 12.375Z" stroke="white" stroke-width="1.1" stroke-linecap="round" stroke-linejoin="round"/>
<path id="Vector_2" d="M15.8596 12.3753C15.7543 12.6141 15.7228 12.879 15.7694 13.1358C15.8159 13.3926 15.9384 13.6296 16.1209 13.8162L16.1684 13.8637C16.3156 14.0107 16.4324 14.1853 16.5121 14.3775C16.5917 14.5698 16.6328 14.7758 16.6328 14.9839C16.6328 15.1919 16.5917 15.398 16.5121 15.5902C16.4324 15.7824 16.3156 15.957 16.1684 16.1041C16.0213 16.2513 15.8467 16.3681 15.6545 16.4478C15.4623 16.5274 15.2563 16.5684 15.0482 16.5684C14.8401 16.5684 14.6341 16.5274 14.4419 16.4478C14.2496 16.3681 14.075 16.2513 13.928 16.1041L13.8805 16.0566C13.6939 15.8741 13.4569 15.7516 13.2001 15.7051C12.9433 15.6585 12.6784 15.6899 12.4396 15.7953C12.2055 15.8957 12.0058 16.0623 11.8651 16.2747C11.7245 16.4871 11.649 16.736 11.648 16.9907V17.1253C11.648 17.5453 11.4812 17.948 11.1842 18.2449C10.8873 18.5418 10.4846 18.7087 10.0646 18.7087C9.64471 18.7087 9.24198 18.5418 8.94505 18.2449C8.64812 17.948 8.4813 17.5453 8.4813 17.1253V17.0541C8.47517 16.792 8.39035 16.5379 8.23787 16.3247C8.08539 16.1115 7.8723 15.9491 7.6263 15.8587C7.38752 15.7533 7.12265 15.7218 6.86584 15.7684C6.60902 15.815 6.37205 15.9374 6.18547 16.1199L6.13797 16.1674C5.99092 16.3146 5.8163 16.4314 5.62408 16.5111C5.43187 16.5908 5.22583 16.6318 5.01776 16.6318C4.80969 16.6318 4.60365 16.5908 4.41144 16.5111C4.21922 16.4314 4.0446 16.3146 3.89755 16.1674C3.75034 16.0204 3.63355 15.8457 3.55387 15.6535C3.47419 15.4613 3.43318 15.2553 3.43318 15.0472C3.43318 14.8391 3.47419 14.6331 3.55387 14.4409C3.63355 14.2487 3.75034 14.074 3.89755 13.927L3.94505 13.8795C4.12756 13.6929 4.24999 13.4559 4.29656 13.1991C4.34312 12.9423 4.31168 12.6774 4.2063 12.4387C4.10595 12.2045 3.93932 12.0048 3.72692 11.8642C3.51452 11.7235 3.26563 11.648 3.01089 11.647H2.8763C2.45638 11.647 2.05365 11.4802 1.75672 11.1832C1.45978 10.8863 1.29297 10.4836 1.29297 10.0637C1.29297 9.64373 1.45978 9.24101 1.75672 8.94407C2.05365 8.64714 2.45638 8.48033 2.8763 8.48033H2.94755C3.20959 8.4742 3.46372 8.38938 3.67691 8.2369C3.89011 8.08441 4.05249 7.87132 4.14297 7.62533C4.24835 7.38655 4.27979 7.12167 4.23322 6.86486C4.18666 6.60805 4.06423 6.37107 3.88172 6.18449L3.83422 6.13699C3.68701 5.98994 3.57022 5.81532 3.49054 5.62311C3.41086 5.43089 3.36985 5.22486 3.36985 5.01678C3.36985 4.80871 3.41086 4.60268 3.49054 4.41046C3.57022 4.21825 3.68701 4.04362 3.83422 3.89658C3.98127 3.74936 4.15589 3.63258 4.3481 3.5529C4.54032 3.47322 4.74635 3.4322 4.95443 3.4322C5.1625 3.4322 5.36854 3.47322 5.56075 3.5529C5.75296 3.63258 5.92759 3.74936 6.07464 3.89658L6.12214 3.94408C6.30871 4.12658 6.54569 4.24901 6.8025 4.29558C7.05932 4.34214 7.32419 4.31071 7.56297 4.20533H7.6263C7.86045 4.10497 8.06015 3.93834 8.20081 3.72594C8.34147 3.51355 8.41695 3.26466 8.41797 3.00991V2.87533C8.41797 2.4554 8.58478 2.05267 8.88172 1.75574C9.17865 1.45881 9.58138 1.29199 10.0013 1.29199C10.4212 1.29199 10.824 1.45881 11.1209 1.75574C11.4178 2.05267 11.5846 2.4554 11.5846 2.87533V2.94658C11.5857 3.20132 11.6611 3.45021 11.8018 3.66261C11.9425 3.87501 12.1422 4.04164 12.3763 4.14199C12.6151 4.24737 12.88 4.27881 13.1368 4.23225C13.3936 4.18568 13.6306 4.06325 13.8171 3.88074L13.8646 3.83324C14.0117 3.68603 14.1863 3.56924 14.3785 3.48956C14.5707 3.40988 14.7768 3.36887 14.9848 3.36887C15.1929 3.36887 15.399 3.40988 15.5912 3.48956C15.7834 3.56924 15.958 3.68603 16.1051 3.83324C16.2523 3.98029 16.369 4.15491 16.4487 4.34713C16.5284 4.53934 16.5694 4.74538 16.5694 4.95345C16.5694 5.16152 16.5284 5.36756 16.4487 5.55977C16.369 5.75199 16.2523 5.92661 16.1051 6.07366L16.0576 6.12116C15.875 6.30774 15.7526 6.54471 15.706 6.80153C15.6595 7.05834 15.6909 7.32321 15.7963 7.56199V7.62533C15.8967 7.85948 16.0633 8.05917 16.2757 8.19983C16.4881 8.34049 16.737 8.41598 16.9917 8.41699H17.1263C17.5462 8.41699 17.949 8.58381 18.2459 8.88074C18.5428 9.17767 18.7096 9.5804 18.7096 10.0003C18.7096 10.4203 18.5428 10.823 18.2459 11.1199C17.949 11.4168 17.5462 11.5837 17.1263 11.5837H17.0551C16.8003 11.5847 16.5514 11.6602 16.339 11.8008C16.1266 11.9415 15.96 12.1412 15.8596 12.3753Z" stroke="white" stroke-width="1.1" stroke-linecap="round" stroke-linejoin="round"/>
</g>
<defs>
<clipPath id="clip0_1449_8070">
<rect width="19" height="19" fill="white" transform="translate(0.5 0.5)"/>
</clipPath>
</defs>
</svg>
