<svg width="17" height="17" viewBox="0 0 17 17" fill="none" xmlns="http://www.w3.org/2000/svg">
<g clip-path="url(#clip0_592_2277)">
<path d="M8.5 10.5C9.60457 10.5 10.5 9.60457 10.5 8.5C10.5 7.39543 9.60457 6.5 8.5 6.5C7.39543 6.5 6.5 7.39543 6.5 8.5C6.5 9.60457 7.39543 10.5 8.5 10.5Z" stroke="white" stroke-width="1.1" stroke-linecap="round" stroke-linejoin="round"/>
<path d="M13.4346 10.5003C13.3459 10.7014 13.3194 10.9245 13.3586 11.1407C13.3978 11.357 13.5009 11.5565 13.6546 11.7137L13.6946 11.7537C13.8186 11.8775 13.9169 12.0245 13.984 12.1864C14.0511 12.3483 14.0857 12.5218 14.0857 12.697C14.0857 12.8722 14.0511 13.0457 13.984 13.2076C13.9169 13.3694 13.8186 13.5165 13.6946 13.6403C13.5708 13.7643 13.4238 13.8626 13.2619 13.9297C13.1 13.9968 12.9265 14.0314 12.7513 14.0314C12.5761 14.0314 12.4026 13.9968 12.2407 13.9297C12.0789 13.8626 11.9318 13.7643 11.808 13.6403L11.768 13.6003C11.6108 13.4466 11.4113 13.3435 11.195 13.3043C10.9788 13.2651 10.7557 13.2916 10.5546 13.3803C10.3575 13.4648 10.1893 13.6052 10.0708 13.784C9.95239 13.9629 9.88882 14.1725 9.88797 14.387V14.5003C9.88797 14.8539 9.74749 15.1931 9.49744 15.4431C9.2474 15.6932 8.90826 15.8337 8.55464 15.8337C8.20101 15.8337 7.86188 15.6932 7.61183 15.4431C7.36178 15.1931 7.2213 14.8539 7.2213 14.5003V14.4403C7.21614 14.2197 7.14471 14.0057 7.01631 13.8261C6.8879 13.6466 6.70846 13.5098 6.5013 13.4337C6.30022 13.3449 6.07717 13.3184 5.86091 13.3577C5.64465 13.3969 5.44509 13.5 5.28797 13.6537L5.24797 13.6937C5.12414 13.8176 4.97709 13.916 4.81522 13.9831C4.65336 14.0502 4.47986 14.0847 4.30464 14.0847C4.12941 14.0847 3.95591 14.0502 3.79405 13.9831C3.63218 13.916 3.48513 13.8176 3.3613 13.6937C3.23733 13.5698 3.13899 13.4228 3.07189 13.2609C3.00479 13.099 2.97025 12.9255 2.97025 12.7503C2.97025 12.5751 3.00479 12.4016 3.07189 12.2397C3.13899 12.0779 3.23733 11.9308 3.3613 11.807L3.4013 11.767C3.55499 11.6099 3.65809 11.4103 3.69731 11.1941C3.73652 10.9778 3.71005 10.7547 3.6213 10.5537C3.53679 10.3565 3.39647 10.1883 3.21761 10.0699C3.03875 9.95141 2.82916 9.88785 2.61464 9.88699H2.5013C2.14768 9.88699 1.80854 9.74652 1.55849 9.49647C1.30844 9.24642 1.16797 8.90728 1.16797 8.55366C1.16797 8.20004 1.30844 7.8609 1.55849 7.61085C1.80854 7.3608 2.14768 7.22033 2.5013 7.22033H2.5613C2.78197 7.21516 2.99597 7.14374 3.1755 7.01533C3.35503 6.88693 3.49178 6.70748 3.56797 6.50033C3.65671 6.29925 3.68318 6.0762 3.64397 5.85993C3.60476 5.64367 3.50166 5.44411 3.34797 5.28699L3.30797 5.24699C3.184 5.12316 3.08565 4.97611 3.01856 4.81425C2.95146 4.65238 2.91692 4.47888 2.91692 4.30366C2.91692 4.12844 2.95146 3.95494 3.01856 3.79307C3.08565 3.63121 3.184 3.48416 3.30797 3.36033C3.4318 3.23636 3.57885 3.13801 3.74072 3.07091C3.90258 3.00381 4.07608 2.96928 4.2513 2.96928C4.42652 2.96928 4.60003 3.00381 4.76189 3.07091C4.92375 3.13801 5.0708 3.23636 5.19464 3.36033L5.23464 3.40033C5.39175 3.55402 5.59131 3.65712 5.80758 3.69633C6.02384 3.73554 6.24689 3.70907 6.44797 3.62033H6.5013C6.69848 3.53582 6.86665 3.3955 6.9851 3.21664C7.10355 3.03778 7.16711 2.82818 7.16797 2.61366V2.50033C7.16797 2.1467 7.30844 1.80756 7.55849 1.55752C7.80854 1.30747 8.14768 1.16699 8.5013 1.16699C8.85492 1.16699 9.19406 1.30747 9.44411 1.55752C9.69416 1.80756 9.83464 2.1467 9.83464 2.50033V2.56033C9.83549 2.77485 9.89906 2.98444 10.0175 3.1633C10.136 3.34216 10.3041 3.48248 10.5013 3.56699C10.7024 3.65574 10.9254 3.68221 11.1417 3.643C11.358 3.60378 11.5575 3.50068 11.7146 3.34699L11.7546 3.30699C11.8785 3.18302 12.0255 3.08468 12.1874 3.01758C12.3492 2.95048 12.5227 2.91594 12.698 2.91594C12.8732 2.91594 13.0467 2.95048 13.2086 3.01758C13.3704 3.08468 13.5175 3.18302 13.6413 3.30699C13.7653 3.43082 13.8636 3.57787 13.9307 3.73974C13.9978 3.9016 14.0324 4.0751 14.0324 4.25033C14.0324 4.42555 13.9978 4.59905 13.9307 4.76091C13.8636 4.92278 13.7653 5.06983 13.6413 5.19366L13.6013 5.23366C13.4476 5.39078 13.3445 5.59034 13.3053 5.8066C13.2661 6.02286 13.2926 6.24591 13.3813 6.44699V6.50033C13.4658 6.6975 13.6061 6.86567 13.785 6.98412C13.9639 7.10257 14.1734 7.16614 14.388 7.16699H14.5013C14.8549 7.16699 15.1941 7.30747 15.4441 7.55752C15.6942 7.80756 15.8346 8.1467 15.8346 8.50033C15.8346 8.85395 15.6942 9.19309 15.4441 9.44313C15.1941 9.69318 14.8549 9.83366 14.5013 9.83366H14.4413C14.2268 9.83451 14.0172 9.89808 13.8383 10.0165C13.6595 10.135 13.5191 10.3031 13.4346 10.5003Z" stroke="white" stroke-width="1.1" stroke-linecap="round" stroke-linejoin="round"/>
</g>
<defs>
<clipPath id="clip0_592_2277">
<rect width="16" height="16" fill="white" transform="translate(0.5 0.5)"/>
</clipPath>
</defs>
</svg>
