<svg width="27" height="28" viewBox="0 0 27 28" fill="none" xmlns="http://www.w3.org/2000/svg">
<g clip-path="url(#clip0_592_2264)">
<path d="M19.639 16.3898C19.2148 17.3928 18.5515 18.2766 17.7069 18.964C16.8623 19.6514 15.8621 20.1214 14.7939 20.333C13.7257 20.5445 12.6219 20.4912 11.5791 20.1776C10.5362 19.8641 9.58605 19.2998 8.81165 18.5342C8.03724 17.7686 7.46218 16.8249 7.13672 15.7857C6.81127 14.7465 6.74534 13.6434 6.9447 12.5729C7.14406 11.5023 7.60263 10.4969 8.28033 9.64446C8.95803 8.79206 9.83422 8.11865 10.8323 7.68311" stroke="white" stroke-width="1.1" stroke-linecap="round" stroke-linejoin="round"/>
<path d="M20.1667 13.7965C20.1667 12.9211 19.9942 12.0542 19.6592 11.2453C19.3242 10.4365 18.8331 9.70156 18.214 9.0825C17.595 8.46345 16.8601 7.97238 16.0512 7.63735C15.2424 7.30232 14.3755 7.12988 13.5 7.12988V13.7965H20.1667Z" stroke="white" stroke-width="1.1" stroke-linecap="round" stroke-linejoin="round"/>
</g>
<defs>
<clipPath id="clip0_592_2264">
<rect width="16" height="16" fill="white" transform="translate(5.5 5.79639)"/>
</clipPath>
</defs>
</svg>
