<svg width="19" height="17" viewBox="0 0 19 17" fill="none" xmlns="http://www.w3.org/2000/svg">
<path d="M7.70778 1.34276C8.24289 0.985985 8.86484 0.796387 9.50009 0.796387C10.1353 0.796387 10.7573 0.985985 11.2924 1.34276L18.2045 5.96098C18.2947 6.02138 18.3691 6.10437 18.4207 6.20237C18.4723 6.30037 18.4996 6.41028 18.5 6.52208C18.5004 6.63388 18.474 6.74401 18.4231 6.84244C18.3723 6.94087 18.2986 7.02446 18.2087 7.08561L15.5001 8.93022V13.8941C15.5001 14.0391 15.455 14.1801 15.3716 14.2961L15.3707 14.297L15.3699 14.2988L15.3673 14.3024L15.3596 14.3113C15.3298 14.3526 15.2984 14.3925 15.2653 14.431C15.1788 14.5335 15.0878 14.6319 14.9927 14.7258C14.7553 14.9643 14.4013 15.2742 13.9213 15.5815C12.9604 16.1979 11.505 16.7964 9.50009 16.7964C7.49521 16.7964 6.04062 16.1979 5.07804 15.5815C4.69275 15.3371 4.33357 15.0505 4.00661 14.7267C3.91206 14.6328 3.82167 14.5344 3.73575 14.4319C3.69894 14.3884 3.66349 14.3438 3.62946 14.2979L3.6286 14.2952C3.54514 14.1793 3.50003 14.0382 3.50003 13.8932V8.92843L1.78573 7.76182V12.5533C1.78573 12.731 1.718 12.9014 1.59744 13.0271C1.47688 13.1527 1.31336 13.2233 1.14286 13.2233C0.972366 13.2233 0.808851 13.1527 0.688291 13.0271C0.56773 12.9014 0.5 12.731 0.5 12.5533V6.52374C0.499913 6.40905 0.528082 6.29625 0.581812 6.19614C0.635541 6.09604 0.713031 6.012 0.80686 5.95205L7.70778 1.34276ZM11.3164 11.778C10.7761 12.1451 10.1451 12.3405 9.50009 12.3405C8.85512 12.3405 8.22407 12.1451 7.68378 11.778L4.78576 9.80563V13.6431C4.81718 13.6777 4.85433 13.7164 4.89719 13.7593C5.07804 13.9406 5.36005 14.1889 5.75176 14.4399C6.53091 14.9402 7.75493 15.4574 9.50009 15.4574C11.2452 15.4574 12.4693 14.9393 13.2484 14.4399C13.5999 14.2156 13.9242 13.9481 14.2144 13.6431V9.80563L11.3164 11.778ZM10.599 2.47096C9.92952 2.02432 9.07065 2.02432 8.40122 2.47096L2.32573 6.52999L8.38665 10.6569C9.0638 11.117 9.93723 11.117 10.6135 10.6569L16.6736 6.52999L10.599 2.47096Z" fill="#FEFEFE"/>
</svg>
