<svg width="35" height="34" viewBox="0 0 35 34" fill="none" xmlns="http://www.w3.org/2000/svg">
<g id="basil:vk-solid">
<path id="Vector" d="M30.964 26.0398H27.7312C26.5086 26.0398 26.1402 25.0496 23.9487 22.8566C22.0333 21.0106 21.2244 20.7811 20.7399 20.7811C20.0698 20.7811 19.8871 20.9653 19.8871 21.8876V24.7946C19.8871 25.5808 19.6321 26.0412 17.5779 26.0412C15.5851 25.9074 13.6526 25.3019 11.9395 24.2749C10.2265 23.2478 8.78201 21.8284 7.725 20.1337C5.21521 17.01 3.46892 13.3438 2.625 9.42657C2.625 8.94207 2.80917 8.5029 3.73283 8.5029H6.96283C7.793 8.5029 8.09192 8.87265 8.41775 9.7269C9.986 14.3424 12.6621 18.3572 13.7487 18.3572C14.1652 18.3572 14.3465 18.1731 14.3465 17.1346V12.3803C14.2091 10.2114 13.0573 10.0286 13.0573 9.24382C13.0719 9.03676 13.1666 8.84353 13.3214 8.70519C13.4761 8.56684 13.6787 8.49428 13.8861 8.5029H18.9634C19.6576 8.5029 19.8871 8.84857 19.8871 9.67873V16.0962C19.8871 16.789 20.1846 17.0185 20.3942 17.0185C20.8107 17.0185 21.1309 16.789 21.8945 16.0268C23.5312 14.0307 24.8685 11.8068 25.864 9.42515C25.9659 9.1392 26.1585 8.89443 26.4125 8.72817C26.6665 8.56192 26.9679 8.4833 27.2707 8.50432H30.5022C31.4712 8.50432 31.6766 8.98882 31.4712 9.68015C30.2959 12.3129 28.8416 14.812 27.1333 17.1346C26.7848 17.6659 26.646 17.9421 27.1333 18.5655C27.4535 19.05 28.5868 19.9963 29.3476 20.8959C30.4554 22.0009 31.3748 23.2787 32.0704 24.6784C32.3481 25.5794 31.8862 26.0398 30.964 26.0398Z" fill="#5C5EDC"/>
</g>
</svg>
