<svg width="27" height="27" viewBox="0 0 27 27" fill="none" xmlns="http://www.w3.org/2000/svg">
<path d="M18.832 10.167H8.16536C7.42898 10.167 6.83203 10.7639 6.83203 11.5003V18.167C6.83203 18.9034 7.42898 19.5003 8.16536 19.5003H18.832C19.5684 19.5003 20.1654 18.9034 20.1654 18.167V11.5003C20.1654 10.7639 19.5684 10.167 18.832 10.167Z" stroke="white" stroke-width="1.1" stroke-linecap="round" stroke-linejoin="round"/>
<path d="M16.1654 19.5V8.83333C16.1654 8.47971 16.0249 8.14057 15.7748 7.89052C15.5248 7.64048 15.1857 7.5 14.832 7.5H12.1654C11.8117 7.5 11.4726 7.64048 11.2226 7.89052C10.9725 8.14057 10.832 8.47971 10.832 8.83333V19.5" stroke="white" stroke-width="1.1" stroke-linecap="round" stroke-linejoin="round"/>
</svg>
