<svg width="29" height="28" viewBox="0 0 29 28" fill="none" xmlns="http://www.w3.org/2000/svg">
<g id="vscode-icons:file-type-yandex">
<path id="Vector" d="M19.6453 1.75H16.1453C12.6453 1.75 9.08402 4.375 9.08402 10.1675C9.01085 11.5101 9.3105 12.8468 9.94982 14.0297C10.5891 15.2126 11.5432 16.1956 12.7065 16.87L8.37527 24.6137C8.276 24.7821 8.22363 24.9739 8.22363 25.1694C8.22363 25.3648 8.276 25.5567 8.37527 25.725C8.46508 25.8791 8.59238 26.0081 8.74535 26.0999C8.89832 26.1917 9.07201 26.2433 9.25027 26.25H11.429C11.6501 26.2608 11.8691 26.2037 12.0568 26.0864C12.2445 25.9691 12.3918 25.7972 12.479 25.5938L16.4953 17.7188H16.7928V25.2613C16.7938 25.396 16.8221 25.5292 16.876 25.6528C16.9299 25.7763 17.0083 25.8877 17.1064 25.9801C17.2045 26.0725 17.3204 26.1441 17.4469 26.1904C17.5735 26.2368 17.7082 26.2571 17.8428 26.25H19.7503C20.0073 26.2595 20.2578 26.1676 20.4477 25.9941C20.6376 25.8206 20.7517 25.5794 20.7653 25.3225V2.8175C20.7688 2.68075 20.7453 2.54465 20.6961 2.41698C20.647 2.28931 20.5732 2.17258 20.479 2.07344C20.3847 1.97431 20.2718 1.89472 20.1468 1.83922C20.0218 1.78372 19.887 1.7534 19.7503 1.75H19.6453ZM16.8628 14.245H16.3465C14.334 14.245 13.144 12.6087 13.144 9.87C13.144 6.4575 14.6578 5.24125 16.0665 5.24125H16.889L16.8628 14.245Z" fill="#D61E3B"/>
</g>
</svg>
